<?xml version="1.0" encoding="utf-8"?>
<!-- Generator: Adobe Illustrator 25.0.0, SVG Export Plug-In . SVG Version: 6.00 Build 0)  -->
<svg version="1.1" id="logo" xmlns="http://www.w3.org/2000/svg" xmlns:xlink="http://www.w3.org/1999/xlink" x="0px" y="0px"
	 viewBox="0 0 425 289" style="enable-background:new 0 0 425 289;" xml:space="preserve">
<style type="text/css">
	.st0{fill:#1D1B1B;}
	.st1{fill:#E84C38;}
	.st2{fill:url(#SVGID_1_);}
	.st3{fill:url(#SVGID_2_);}
</style>
<g>
	<g>
		<path class="st0" d="M407.9,125.6c2.8,2.9,5.7,5.6,8.5,8.5c0.9,0.9,2.4-0.1,1.9-1.3c-5.6-12.9-15.2-27.6-21.9-37.2
			c-0.9-1.2-2.7-0.7-2.9,0.7c-0.1,0.5-0.1,1-0.2,1.4c-0.3,3.7,0.4,7.4,1.9,10.8C398.2,115.2,403,120.6,407.9,125.6z"/>
		<path class="st0" d="M391.6,187.2c3.5-0.3,6.4-2.8,7.2-6.2l0-0.1c0.8-3.5,0.5-7.2-1.4-10.5c-5.1-9-15.5-13.3-23.3-19.5
			c-5-3.9-8.9-9.1-11-14.8c-0.9-2.3-4.1-2.3-5,0c-2,5.2-3.2,10-3.2,13.9c0,20.6,15.2,37.4,34,37.4
			C389.8,187.3,390.7,187.3,391.6,187.2z"/>
		<path class="st1" d="M413.8,140.9c-4.8-5-10.1-9.6-14.7-14.8c-4.8-5.4-9.2-11.5-11.4-18.5c-1.2-3.9-1.4-7.7-0.9-11.7
			c0.2-1.4,0.5-2.8,0.7-4.3c0.2-1.3-1.5-2-2.2-0.9c-3,4.7-7.5,11.8-9.8,16c-1.7,3.2-3.3,6.4-4.8,9.6c-1.4,3-2.5,6.2-2.7,9.6
			c-0.3,5.7,2,11.2,5.7,15.4c3.3,3.8,7.4,6.6,11.6,9.3c8.3,5.4,18.2,12.2,20.2,22.7c0.3,1.7,0.4,3.3,0.3,5c-0.1,1.8,2,2.8,3.3,1.7
			c3.4-2.8,6.2-6.2,8.5-10.1C423,160.5,421.4,148.7,413.8,140.9C413.9,140.9,413.8,140.9,413.8,140.9z"/>
		<g>
			<g>
				<linearGradient id="SVGID_1_" gradientUnits="userSpaceOnUse" x1="386.5448" y1="91.7825" x2="386.5475" y2="91.6825">
					<stop  offset="0" style="stop-color:#294B9A"/>
					<stop  offset="0.4578" style="stop-color:#654D99"/>
					<stop  offset="0.8155" style="stop-color:#8E4E98"/>
					<stop  offset="1" style="stop-color:#9D4F98"/>
				</linearGradient>
				<path class="st2" d="M386.5,91.8c0.1,0,0.1-0.1,0-0.1C386.5,91.7,386.5,91.8,386.5,91.8L386.5,91.8z"/>
			</g>
		</g>
	</g>
	<g>
		<g>
			<linearGradient id="SVGID_2_" gradientUnits="userSpaceOnUse" x1="115.5774" y1="91.4594" x2="115.486" y2="91.494">
				<stop  offset="0" style="stop-color:#FFFFFF"/>
				<stop  offset="0.1149" style="stop-color:#F8D0C8"/>
				<stop  offset="0.2305" style="stop-color:#F2A898"/>
				<stop  offset="0.3497" style="stop-color:#EC856F"/>
				<stop  offset="0.4708" style="stop-color:#E8694E"/>
				<stop  offset="0.5943" style="stop-color:#E45334"/>
				<stop  offset="0.7211" style="stop-color:#E24322"/>
				<stop  offset="0.8534" style="stop-color:#E03A17"/>
				<stop  offset="1" style="stop-color:#E03713"/>
			</linearGradient>
			<path class="st3" d="M115.5,91.5C115.6,91.5,115.6,91.4,115.5,91.5C115.5,91.4,115.5,91.5,115.5,91.5L115.5,91.5z"/>
		</g>
	</g>
	<path class="st1" d="M184.5,186.4l20.5-20.5c2.9-2.9,7.5-2.9,10.3,0l20.5,20.5c4.6,4.6,1.3,12.5-5.2,12.5h-41
		C183.1,198.9,179.9,191.1,184.5,186.4z"/>
	<path class="st0" d="M204.2,166.7l-19.7,19.7c-4.6,4.6-1.3,12.5,5.2,12.5h8.8C201.5,188.4,203.3,177.6,204.2,166.7z"/>
	<path class="st1" d="M317.4,187.9l-22.7,0.2c-11.9,0.1-23.3-4.1-31.6-11.6L225,142.3c-6.1-5.4-16-5.5-22.1-0.1l-50.5,44.6
		c-8.5,7.5-20,12-31.9,12c-11.9,0-23.1-4.2-31.5-11.7L7,113.4c-6.1-5.5-1.7-14.7,6.9-14.6l22.7,0.2c12.7,0.1,24.8,4.6,33.8,12.6
		l39.2,34.9c6.1,5.4,16,5.5,22.1,0.1l50.5-44.6c8.5-7.5,20-12,31.9-12c11.9,0,23.1,4.2,31.5,11.7l78.9,70.8
		C330.8,178.2,326.3,187.8,317.4,187.9z"/>
	<path class="st0" d="M89.2,187c8.4,7.6,19.6,11.8,31.5,11.8c12,0,23.4-4.6,31.9-12.3l50.3-45.4c6.1-5.5,16-5.5,22.1,0l38.2,34.5
		c8.4,7.6,19.8,11.8,31.7,11.6l11.9-0.1c8.9-0.1,13.3-9.9,7-15.6c-8.4-7.6-16.8-15.2-25.3-22.8c-3.1-1.7-5.9-3.7-8.5-6l-38.2-34.5
		c-6.1-5.5-16-5.5-22.1,0l-50.3,45.4c-8.5,7.7-19.9,12.2-31.9,12.3c-11.9,0-23.1-4.2-31.5-11.8l-45.7-41.3C50,103.5,36,98.2,21.4,98
		c-2.4,0-4.9-0.1-7.4-0.1c-8.7-0.1-13.1,9.4-7,14.9L89.2,187z"/>
</g>
</svg>
